<?xml version="1.0" encoding="UTF-8" standalone="no"?>
<!-- Created with Inkscape (http://www.inkscape.org/) -->

<svg
   xmlns:dc="http://purl.org/dc/elements/1.1/"
   xmlns:cc="http://creativecommons.org/ns#"
   xmlns:rdf="http://www.w3.org/1999/02/22-rdf-syntax-ns#"
   xmlns:svg="http://www.w3.org/2000/svg"
   xmlns="http://www.w3.org/2000/svg"
   xmlns:xlink="http://www.w3.org/1999/xlink"
   xmlns:sodipodi="http://sodipodi.sourceforge.net/DTD/sodipodi-0.dtd"
   xmlns:inkscape="http://www.inkscape.org/namespaces/inkscape"
   width="320"
   height="430"
   viewBox="0 0 84.666665 113.77084"
   version="1.1"
   id="svg112"
   inkscape:version="0.92.1 r15371"
   sodipodi:docname="img.svg">
  <defs
     id="defs106" />
  <sodipodi:namedview
     id="base"
     pagecolor="#ffffff"
     bordercolor="#666666"
     borderopacity="1.0"
     inkscape:pageopacity="0.0"
     inkscape:pageshadow="2"
     inkscape:zoom="1.979899"
     inkscape:cx="188.91334"
     inkscape:cy="233.37404"
     inkscape:document-units="px"
     inkscape:current-layer="a4653"
     showgrid="false"
     units="px"
     inkscape:window-width="1334"
     inkscape:window-height="965"
     inkscape:window-x="545"
     inkscape:window-y="31"
     inkscape:window-maximized="0" />
  <metadata
     id="metadata109">
    <rdf:RDF>
      <cc:Work
         rdf:about="">
        <dc:format>image/svg+xml</dc:format>
        <dc:type
           rdf:resource="http://purl.org/dc/dcmitype/StillImage" />
        <dc:title></dc:title>
      </cc:Work>
    </rdf:RDF>
  </metadata>
  <g
     inkscape:label="Ebene 1"
     inkscape:groupmode="layer"
     id="layer1"
     transform="translate(0,-183.22915)">
    <text
       xml:space="preserve"
       style="font-style:normal;font-weight:normal;font-size:10.58333397px;line-height:1.25;font-family:sans-serif;letter-spacing:0px;word-spacing:0px;fill:#000000;fill-opacity:1;stroke:none;stroke-width:0.26458335"
       x="1.1024567"
       y="194.2625"
       id="text116"><tspan
         sodipodi:role="line"
         id="tspan114"
         x="1.1024567"
         y="194.2625"
         style="stroke-width:0.26458335">first text left up</tspan></text>
    <a
       xlink:href="text2link.svg"
       transform="translate(-14.03165,-2.0045215)"
       style="fill:#ff5555;stroke:#ff00ff"
       id="a4653">
      <text
         id="text120"
         y="243.51636"
         x="42.522324"
         style="font-style:normal;font-weight:normal;font-size:10.58333397px;line-height:1.25;font-family:sans-serif;letter-spacing:0px;word-spacing:0px;fill:#ff5555;fill-opacity:1;stroke:#ff00ff;stroke-width:0.26458335"
         xml:space="preserve"><tspan
           style="fill:#ff5555;stroke:#ff00ff;stroke-width:0.26458335"
           y="243.51636"
           x="42.522324"
           id="tspan118"
           sodipodi:role="line">blue box</tspan></text>
    </a>
    <a
       xlink:href="img2.svg"
       id="a977">
      <rect
         y="289.08307"
         x="13.249741"
         height="2.6046865"
         width="2.6046865"
         id="rect122"
         style="fill:#000080;stroke:#008080;stroke-width:0.26458334;stroke-miterlimit:4;stroke-dasharray:none;image-rendering:auto" />
    </a>
    <a
       xlink:href="img3.svg"
       id="a4650">
      <rect
         y="291.74646"
         x="0.038149014"
         height="5.2153687"
         width="2.5695355"
         id="rect124"
         style="fill:#ff0000;stroke:#008080;stroke-width:0;stroke-miterlimit:4;stroke-dasharray:none" />
    </a>
    <path
       style="fill:none;stroke:#000000;stroke-width:0.26458335px;stroke-linecap:butt;stroke-linejoin:miter;stroke-opacity:1"
       d="m 3.6081386,279.09293 c 8.1071764,0 16.2143514,0 24.3215274,0 1.336347,0 2.672697,0 4.009044,0 0.267268,0 0.534537,0 0.801809,0 0.311814,0 0.624705,-0.0259 0.935442,0 0.226351,0.0189 0.442428,0.10855 0.668174,0.13363 0.177091,0.0197 0.356359,0 0.53454,0 0.267269,0.0446 0.533575,0.0953 0.801807,0.13364 0.492434,0.0703 1.352745,0.14769 1.870887,0.26727 1.042495,0.24057 0.725776,0.21532 1.603618,0.53454 0.413621,0.24113 0.895149,0.25383 1.336347,0.4009 0.227571,0.0759 0.43841,0.19834 0.668174,0.26727 0.217556,0.0653 0.449043,0.0739 0.668173,0.13363 0.271801,0.0741 0.526791,0.20616 0.801809,0.26727 0.130453,0.029 0.269865,-0.0262 0.400905,0 0.195342,0.0391 0.341276,0.21896 0.534538,0.26727 0.08643,0.0216 0.182753,-0.0282 0.267271,0 0.05976,0.0199 0.07387,0.11372 0.133633,0.13364 0.08452,0.0282 0.182753,-0.0282 0.267272,0 0.0298,0.01 0.514974,0.49541 0.534538,0.53454 0.01992,0.0398 -0.0315,0.10213 0,0.13363 0.0315,0.0315 0.102137,-0.0315 0.133635,0 0.0315,0.0315 -0.0315,0.10214 0,0.13364 0.0315,0.0315 0.113713,-0.0399 0.133634,0 0.03984,0.0797 -0.04942,0.19314 0,0.26727 0.05525,0.0829 0.196839,0.0632 0.267271,0.13363 0.113567,0.11357 0.162745,0.27896 0.267269,0.4009 0.163989,0.19133 0.356359,0.35636 0.534538,0.53454 0.178181,0.17818 0.347241,0.36597 0.53454,0.53454 0.258596,0.23274 0.555802,0.42217 0.801809,0.66818 0.246007,0.24601 0.433083,0.54534 0.668174,0.8018 0.255407,0.27863 0.546399,0.52319 0.801809,0.80181 0.267385,0.2917 0.929119,1.12799 1.202711,1.46999 0.178181,0.22272 0.345046,0.45499 0.53454,0.66817 1.108446,1.10845 0.01529,-0.0351 0.935443,1.06908 0.285046,0.34205 0.284549,0.24682 0.668173,0.53454 0.0504,0.0378 0.08122,0.0987 0.133636,0.13363 0.08287,0.0553 0.196837,0.0632 0.267269,0.13364 0.0315,0.0315 -0.0315,0.10213 0,0.13363 0.19663,0 0.102137,-0.0315 0.267269,0.13364"
       id="path956"
       inkscape:connector-curvature="0" />
    <circle
       style="fill:#00ffff;stroke:#000000;stroke-width:0.26458334;stroke-miterlimit:4;stroke-dasharray:none;stroke-opacity:1"
       id="path4673"
       cx="22.717911"
       cy="263.85855"
       r="7.6171813" />
    <rect
       style="fill:#ff0000;stroke:#0000ff;stroke-width:0.17522988;stroke-miterlimit:4;stroke-dasharray:none;stroke-opacity:1"
       id="rect4675"
       width="13.053937"
       height="7.7622705"
       x="10.670948"
       y="201.8376" />
    <rect
       style="fill:#008000;stroke:#ff0000;stroke-width:0.18408567;stroke-miterlimit:4;stroke-dasharray:none;stroke-opacity:1"
       id="rect4677"
       width="13.045081"
       height="7.7534146"
       x="10.675376"
       y="212.42535" />
    <rect
       style="fill:#0000ff;stroke:#008000;stroke-width:0.18422483;stroke-miterlimit:4;stroke-dasharray:none;stroke-opacity:1"
       id="rect4679"
       width="13.044942"
       height="7.7532754"
       x="10.675446"
       y="223.00876" />
    <circle
       style="fill:none;stroke:#800080;stroke-width:0.26458335;stroke-miterlimit:4;stroke-dasharray:none;stroke-opacity:1"
       id="path4673-3"
       cx="52.117558"
       cy="216.95276"
       r="7.6171813" />
    <rect
       style="fill:none;stroke:#0000ff;stroke-width:0.17522988;stroke-miterlimit:4;stroke-dasharray:none;stroke-opacity:1"
       id="rect4675-6"
       width="13.053937"
       height="7.7622705"
       x="10.670948"
       y="233.5876" />
  </g>
</svg>
